# xmcd CD database file
#
# Track frame offsets:
#	150
#	21033
#	35888
#	48800
#	73260
#	89253
#	104693
#	123558
#	139923
#	156315
#	170385
#	186175
#
# Disc length: 2673 seconds
#
# Revision: 0
# Processed by: cddbd v1.5.1PL0 Copyright (c) Steve Scherf et al.
# Submitted via: CDex 1.51
#
DISCID=ad0a6f0c
DTITLE=Various Artist - 12 Liefdesliedjes - Liefde and Geluk vol.1
DYEAR=1990
DGENRE=Love songs
TTITLE0=Reinhardt Mey - Als de dag van toen
TTITLE1=Roos - Ik wil je met m'n hart verwarmen
TTITLE2=Conny Vandenbos and Wim Rijken - Wie weet wat liefde is
TTITLE3=Jan ten Hoopen - Ik hou van jou
TTITLE4=George Callee - Als ik jou niet meer had
TTITLE5=Gerrie Evers - En toen kwam uitgerekend jij
TTITLE6=Imca Marina - Leugenaar
TTITLE7=Ton de Wit - 50 Jaar getrouwd
TTITLE8=Joni - Alles geef ik op voor jou
TTITLE9=Aja de Graaf - Eenmaal in je leven
TTITLE10=Melchior - Desiree
TTITLE11=Paloma Trio - Je t'aime
EXTD=YEAR: 1990
EXTT0=
EXTT1=
EXTT2=
EXTT3=
EXTT4=
EXTT5=
EXTT6=
EXTT7=
EXTT8=
EXTT9=
EXTT10=
EXTT11=
PLAYORDER=
